<svg width="277" height="41" viewBox="0 0 277 41" fill="none" xmlns="http://www.w3.org/2000/svg">
<rect x="0.263672" y="0.625305" width="275.754" height="40" rx="5" fill="white" stroke="#EBE6E6" stroke-width="0.5"/>
<rect width="87" height="24" transform="translate(18.2637 8.62531)" fill="white"/>
<path d="M29.1387 27.3753C33.4879 27.3753 37.0137 23.8495 37.0137 19.5003C37.0137 15.1511 33.4879 11.6253 29.1387 11.6253C24.7894 11.6253 21.2637 15.1511 21.2637 19.5003C21.2637 23.8495 24.7894 27.3753 29.1387 27.3753Z" stroke="#4E5052" stroke-linecap="round" stroke-linejoin="round"/>
<path d="M34.707 25.0691L39.2633 29.6254" stroke="#4E5052" stroke-linecap="round" stroke-linejoin="round"/>
<path d="M66.3187 23.8803C66.3187 24.8203 65.9937 25.5403 65.3437 26.0403C64.7037 26.5303 63.8937 26.7753 62.9137 26.7753C61.8137 26.7753 60.9437 26.5003 60.3037 25.9503C59.6737 25.3903 59.3237 24.6153 59.2537 23.6253H60.5887C60.6687 24.2553 60.9087 24.7403 61.3087 25.0803C61.7087 25.4203 62.2437 25.5903 62.9137 25.5903C63.5037 25.5903 63.9887 25.4503 64.3687 25.1703C64.7487 24.8903 64.9387 24.4703 64.9387 23.9103C64.9387 23.5903 64.8737 23.3153 64.7437 23.0853C64.6237 22.8453 64.4387 22.6453 64.1887 22.4853C63.9487 22.3253 63.7287 22.2053 63.5287 22.1253C63.3287 22.0453 63.0687 21.9553 62.7487 21.8553L62.2237 21.7053C61.8737 21.5953 61.5687 21.4803 61.3087 21.3603C61.0587 21.2403 60.7887 21.0753 60.4987 20.8653C60.2087 20.6453 59.9837 20.3703 59.8237 20.0403C59.6637 19.7003 59.5837 19.3153 59.5837 18.8853C59.5837 18.0053 59.8987 17.3003 60.5287 16.7703C61.1587 16.2403 61.9587 15.9753 62.9287 15.9753C63.9087 15.9753 64.7037 16.2553 65.3137 16.8153C65.9337 17.3653 66.2687 18.0753 66.3187 18.9453H64.9687C64.9087 18.4153 64.7037 17.9853 64.3537 17.6553C64.0137 17.3253 63.5387 17.1603 62.9287 17.1603C62.3487 17.1603 61.8687 17.3153 61.4887 17.6253C61.1187 17.9353 60.9337 18.3353 60.9337 18.8253C60.9337 19.0153 60.9587 19.1903 61.0087 19.3503C61.0687 19.5003 61.1587 19.6353 61.2787 19.7553C61.4087 19.8753 61.5237 19.9753 61.6237 20.0553C61.7237 20.1353 61.8787 20.2153 62.0887 20.2953C62.2987 20.3753 62.4487 20.4353 62.5387 20.4753C62.6287 20.5053 62.7887 20.5553 63.0187 20.6253L63.4837 20.7753C63.7437 20.8553 63.9587 20.9303 64.1287 21.0003C64.3087 21.0703 64.5487 21.1953 64.8487 21.3753C65.1587 21.5453 65.4037 21.7303 65.5837 21.9303C65.7737 22.1303 65.9437 22.4053 66.0937 22.7553C66.2437 23.0953 66.3187 23.4703 66.3187 23.8803ZM74.7041 22.7253C74.7041 22.7953 74.6941 22.9503 74.6741 23.1903H69.0791C69.1191 23.9403 69.3441 24.5453 69.7541 25.0053C70.1741 25.4653 70.7291 25.6953 71.4191 25.6953C71.9091 25.6953 72.3241 25.5903 72.6641 25.3803C73.0141 25.1603 73.2541 24.8453 73.3841 24.4353H74.6591C74.4991 25.1753 74.1291 25.7503 73.5491 26.1603C72.9691 26.5703 72.2591 26.7753 71.4191 26.7753C70.3491 26.7753 69.4741 26.4253 68.7941 25.7253C68.1141 25.0253 67.7741 24.1003 67.7741 22.9503C67.7741 21.7603 68.1141 20.8003 68.7941 20.0703C69.4741 19.3403 70.3291 18.9753 71.3591 18.9753C72.3191 18.9753 73.1141 19.3003 73.7441 19.9503C74.3841 20.6003 74.7041 21.5253 74.7041 22.7253ZM72.8441 20.6553C72.4641 20.2553 71.9691 20.0553 71.3591 20.0553C70.7491 20.0553 70.2341 20.2653 69.8141 20.6853C69.4041 21.0953 69.1641 21.6103 69.0941 22.2303H73.4291C73.4191 21.5803 73.2241 21.0553 72.8441 20.6553ZM82.8102 25.6053H83.0052V26.6253H82.4052C81.6652 26.6253 81.2202 26.3053 81.0702 25.6653C80.4902 26.4053 79.6652 26.7753 78.5952 26.7753C77.8552 26.7753 77.2552 26.5953 76.7952 26.2353C76.3452 25.8653 76.1202 25.3303 76.1202 24.6303C76.1202 23.9503 76.3502 23.4203 76.8102 23.0403C77.2802 22.6503 77.9002 22.4153 78.6702 22.3353L80.9052 22.1253V21.7053C80.9052 21.1853 80.7702 20.7803 80.5002 20.4903C80.2302 20.2003 79.8452 20.0553 79.3452 20.0553C78.4452 20.0553 77.9052 20.5303 77.7252 21.4803H76.4202C76.5002 20.7403 76.7952 20.1403 77.3052 19.6803C77.8252 19.2103 78.5052 18.9753 79.3452 18.9753C80.2152 18.9753 80.9102 19.2153 81.4302 19.6953C81.9602 20.1753 82.2252 20.8553 82.2252 21.7353V24.9903C82.2252 25.4003 82.4202 25.6053 82.8102 25.6053ZM80.9052 23.7453V23.0853L79.0902 23.2653C78.5802 23.3153 78.1752 23.4503 77.8752 23.6703C77.5852 23.8903 77.4402 24.1953 77.4402 24.5853C77.4402 24.9753 77.5652 25.2653 77.8152 25.4553C78.0652 25.6353 78.3852 25.7253 78.7752 25.7253C79.3452 25.7253 79.8402 25.5653 80.2602 25.2453C80.6902 24.9153 80.9052 24.4153 80.9052 23.7453ZM84.4357 26.6253V19.1253H85.6207L85.7407 20.1603H85.8457C86.0657 19.7803 86.3357 19.4903 86.6557 19.2903C86.9757 19.0803 87.4207 18.9753 87.9907 18.9753H88.4257V20.2953C88.2757 20.2753 88.0507 20.2653 87.7507 20.2653C87.1107 20.2653 86.6157 20.4903 86.2657 20.9403C85.9157 21.3803 85.7407 21.9653 85.7407 22.6953V26.6253H84.4357ZM92.8519 26.7753C91.7319 26.7753 90.8269 26.4103 90.1369 25.6803C89.4569 24.9503 89.1169 24.0303 89.1169 22.9203C89.1169 21.7803 89.4669 20.8403 90.1669 20.1003C90.8669 19.3503 91.7569 18.9753 92.8369 18.9753C93.6969 18.9753 94.4419 19.2153 95.0719 19.6953C95.7119 20.1653 96.0969 20.8203 96.2269 21.6603H94.9069C94.8069 21.2203 94.5719 20.8553 94.2019 20.5653C93.8319 20.2753 93.3769 20.1303 92.8369 20.1303C92.1369 20.1303 91.5619 20.3953 91.1119 20.9253C90.6619 21.4553 90.4369 22.1203 90.4369 22.9203C90.4369 23.7003 90.6569 24.3453 91.0969 24.8553C91.5369 25.3653 92.1219 25.6203 92.8519 25.6203C93.9319 25.6203 94.6269 25.1403 94.9369 24.1803H96.2569C96.1169 24.9703 95.7369 25.6003 95.1169 26.0703C94.5069 26.5403 93.7519 26.7753 92.8519 26.7753ZM101.468 18.9753C102.288 18.9753 102.948 19.2303 103.448 19.7403C103.948 20.2503 104.198 20.9753 104.198 21.9153V26.6253H102.893V22.2003C102.893 21.5103 102.728 20.9953 102.398 20.6553C102.078 20.3053 101.658 20.1303 101.138 20.1303C100.588 20.1303 100.123 20.3203 99.743 20.7003C99.373 21.0703 99.188 21.6203 99.188 22.3503V26.6253H97.883V15.9753H99.188V20.0253H99.293C99.803 19.3253 100.528 18.9753 101.468 18.9753Z" fill="#4E5052"/>
</svg>
