<svg width="160" height="67" viewBox="0 0 160 67" fill="none" xmlns="http://www.w3.org/2000/svg">
<ellipse cx="25.7241" cy="24.8362" rx="6.72414" ry="7.03933" fill="#FED75C"/>
<ellipse cx="25.7241" cy="41.6222" rx="6.72414" ry="7.03933" fill="#9EC2FE"/>
<ellipse cx="42.2759" cy="24.8362" rx="6.72414" ry="7.03933" fill="#FF9D93"/>
<ellipse cx="42.2759" cy="41.6222" rx="6.72414" ry="7.03933" fill="#FCB385"/>
<path d="M57.595 23.4894C57.595 22.7527 57.7253 22.0331 57.986 21.3304C58.2467 20.6164 58.6263 19.9704 59.125 19.3924C59.635 18.8031 60.2527 18.3384 60.978 17.9984C61.7033 17.6471 62.525 17.4714 63.443 17.4714C64.531 17.4714 65.4717 17.7207 66.265 18.2194C67.0583 18.7067 67.6477 19.3357 68.033 20.1064L66.537 21.1094C66.3103 20.6221 66.0213 20.2367 65.67 19.9534C65.33 19.6701 64.956 19.4717 64.548 19.3584C64.1513 19.2451 63.7603 19.1884 63.375 19.1884C62.7403 19.1884 62.185 19.3187 61.709 19.5794C61.233 19.8287 60.8307 20.1631 60.502 20.5824C60.1847 21.0017 59.941 21.4721 59.771 21.9934C59.6123 22.5147 59.533 23.0361 59.533 23.5574C59.533 24.1354 59.6293 24.6964 59.822 25.2404C60.0147 25.7731 60.281 26.2491 60.621 26.6684C60.9723 27.0764 61.386 27.3994 61.862 27.6374C62.338 27.8754 62.8593 27.9944 63.426 27.9944C63.8113 27.9944 64.2137 27.9264 64.633 27.7904C65.0523 27.6544 65.4377 27.4447 65.789 27.1614C66.1517 26.8667 66.435 26.4814 66.639 26.0054L68.22 26.9064C67.9707 27.5071 67.5797 28.0171 67.047 28.4364C66.5257 28.8557 65.9363 29.1731 65.279 29.3884C64.633 29.6037 63.9927 29.7114 63.358 29.7114C62.508 29.7114 61.7317 29.5357 61.029 29.1844C60.3263 28.8217 59.72 28.3457 59.21 27.7564C58.7 27.1557 58.3033 26.4871 58.02 25.7504C57.7367 25.0024 57.595 24.2487 57.595 23.4894ZM73.7215 29.7794C73.0188 29.7794 72.3898 29.6604 71.8345 29.4224C71.2792 29.1731 70.7975 28.8331 70.3895 28.4024C69.9928 27.9717 69.6868 27.4844 69.4715 26.9404C69.2562 26.3851 69.1485 25.7957 69.1485 25.1724C69.1485 24.5491 69.2562 23.9597 69.4715 23.4044C69.6868 22.8491 69.9928 22.3617 70.3895 21.9424C70.7975 21.5117 71.2792 21.1774 71.8345 20.9394C72.4012 20.6901 73.0302 20.5654 73.7215 20.5654C74.4128 20.5654 75.0362 20.6901 75.5915 20.9394C76.1582 21.1774 76.6398 21.5117 77.0365 21.9424C77.4445 22.3617 77.7562 22.8491 77.9715 23.4044C78.1868 23.9597 78.2945 24.5491 78.2945 25.1724C78.2945 25.7957 78.1868 26.3851 77.9715 26.9404C77.7562 27.4844 77.4445 27.9717 77.0365 28.4024C76.6398 28.8331 76.1582 29.1731 75.5915 29.4224C75.0362 29.6604 74.4128 29.7794 73.7215 29.7794ZM71.0695 25.1894C71.0695 25.7561 71.1885 26.2661 71.4265 26.7194C71.6645 27.1727 71.9818 27.5297 72.3785 27.7904C72.7752 28.0511 73.2228 28.1814 73.7215 28.1814C74.2088 28.1814 74.6508 28.0511 75.0475 27.7904C75.4555 27.5184 75.7785 27.1557 76.0165 26.7024C76.2545 26.2377 76.3735 25.7277 76.3735 25.1724C76.3735 24.6057 76.2545 24.0957 76.0165 23.6424C75.7785 23.1891 75.4555 22.8321 75.0475 22.5714C74.6508 22.2994 74.2088 22.1634 73.7215 22.1634C73.2228 22.1634 72.7752 22.2994 72.3785 22.5714C71.9818 22.8434 71.6645 23.2061 71.4265 23.6594C71.1885 24.1014 71.0695 24.6114 71.0695 25.1894ZM79.8681 26.1584V20.7184H81.7381V25.7844C81.7381 26.5777 81.8797 27.1784 82.1631 27.5864C82.4577 27.9831 82.8827 28.1814 83.4381 28.1814C83.7894 28.1814 84.1294 28.1077 84.4581 27.9604C84.7981 27.8131 85.1041 27.5977 85.3761 27.3144C85.6594 27.0197 85.8861 26.6684 86.0561 26.2604V20.7184H87.9261V27.5014C87.9261 27.7167 87.9657 27.8697 88.0451 27.9604C88.1244 28.0511 88.2547 28.1021 88.4361 28.1134V29.6094C88.2434 29.6434 88.0847 29.6661 87.9601 29.6774C87.8354 29.6887 87.7164 29.6944 87.6031 29.6944C87.2631 29.6944 86.9797 29.6037 86.7531 29.4224C86.5264 29.2297 86.3961 28.9861 86.3621 28.6914L86.3281 27.8074C85.9314 28.4534 85.4157 28.9464 84.7811 29.2864C84.1464 29.6151 83.4494 29.7794 82.6901 29.7794C81.7607 29.7794 81.0581 29.4734 80.5821 28.8614C80.1061 28.2494 79.8681 27.3484 79.8681 26.1584ZM95.3104 22.3334C94.5851 22.3447 93.9391 22.5091 93.3724 22.8264C92.8171 23.1437 92.4204 23.5914 92.1824 24.1694V29.6094H90.3124V20.7184H92.0464V22.7074C92.3524 22.0954 92.7548 21.6081 93.2534 21.2454C93.7521 20.8714 94.2791 20.6674 94.8344 20.6334C94.9478 20.6334 95.0384 20.6334 95.1064 20.6334C95.1858 20.6334 95.2538 20.6391 95.3104 20.6504V22.3334ZM99.8328 29.7794C99.0848 29.7794 98.3765 29.6604 97.7078 29.4224C97.0392 29.1731 96.4668 28.8047 95.9908 28.3174L96.6878 27.0594C97.1978 27.5127 97.7078 27.8414 98.2178 28.0454C98.7392 28.2494 99.2548 28.3514 99.7648 28.3514C100.286 28.3514 100.711 28.2551 101.04 28.0624C101.368 27.8584 101.533 27.5637 101.533 27.1784C101.533 26.8951 101.448 26.6854 101.278 26.5494C101.108 26.4134 100.858 26.2944 100.53 26.1924C100.212 26.0904 99.8272 25.9771 99.3738 25.8524C98.7392 25.6597 98.2065 25.4614 97.7758 25.2574C97.3452 25.0421 97.0222 24.7814 96.8068 24.4754C96.5915 24.1694 96.4838 23.7784 96.4838 23.3024C96.4838 22.7244 96.6312 22.2314 96.9258 21.8234C97.2205 21.4154 97.6285 21.1037 98.1498 20.8884C98.6825 20.6731 99.2945 20.5654 99.9858 20.5654C100.632 20.5654 101.227 20.6674 101.771 20.8714C102.326 21.0641 102.813 21.3701 103.233 21.7894L102.434 23.0304C102.037 22.6677 101.629 22.4014 101.21 22.2314C100.802 22.0614 100.36 21.9764 99.8838 21.9764C99.6118 21.9764 99.3512 22.0104 99.1018 22.0784C98.8525 22.1351 98.6428 22.2484 98.4728 22.4184C98.3142 22.5771 98.2348 22.8037 98.2348 23.0984C98.2348 23.3364 98.3028 23.5291 98.4388 23.6764C98.5748 23.8237 98.7788 23.9484 99.0508 24.0504C99.3228 24.1524 99.6572 24.2657 100.054 24.3904C100.745 24.5944 101.334 24.7984 101.822 25.0024C102.309 25.1951 102.683 25.4501 102.944 25.7674C103.216 26.0734 103.352 26.4984 103.352 27.0424C103.352 27.9037 103.029 28.5781 102.383 29.0654C101.748 29.5414 100.898 29.7794 99.8328 29.7794ZM109.05 29.7794C108.359 29.7794 107.73 29.6604 107.163 29.4224C106.608 29.1731 106.126 28.8387 105.718 28.4194C105.31 27.9887 104.993 27.5014 104.766 26.9574C104.551 26.4021 104.443 25.8127 104.443 25.1894C104.443 24.3507 104.636 23.5857 105.021 22.8944C105.407 22.1917 105.945 21.6307 106.636 21.2114C107.328 20.7807 108.138 20.5654 109.067 20.5654C109.997 20.5654 110.796 20.7807 111.464 21.2114C112.144 21.6307 112.671 22.1861 113.045 22.8774C113.419 23.5687 113.606 24.3111 113.606 25.1044C113.606 25.2404 113.601 25.3707 113.589 25.4954C113.578 25.6087 113.567 25.7051 113.555 25.7844H106.432C106.466 26.3057 106.608 26.7647 106.857 27.1614C107.118 27.5467 107.447 27.8527 107.843 28.0794C108.24 28.2947 108.665 28.4024 109.118 28.4024C109.617 28.4024 110.087 28.2777 110.529 28.0284C110.983 27.7791 111.289 27.4504 111.447 27.0424L113.045 27.5014C112.853 27.9321 112.558 28.3231 112.161 28.6744C111.776 29.0144 111.317 29.2864 110.784 29.4904C110.252 29.6831 109.674 29.7794 109.05 29.7794ZM106.381 24.5434H111.753C111.719 24.0334 111.572 23.5857 111.311 23.2004C111.062 22.8037 110.739 22.4977 110.342 22.2824C109.957 22.0557 109.526 21.9424 109.05 21.9424C108.586 21.9424 108.155 22.0557 107.758 22.2824C107.373 22.4977 107.056 22.8037 106.806 23.2004C106.557 23.5857 106.415 24.0334 106.381 24.5434ZM118.294 29.7794C117.546 29.7794 116.837 29.6604 116.169 29.4224C115.5 29.1731 114.928 28.8047 114.452 28.3174L115.149 27.0594C115.659 27.5127 116.169 27.8414 116.679 28.0454C117.2 28.2494 117.716 28.3514 118.226 28.3514C118.747 28.3514 119.172 28.2551 119.501 28.0624C119.829 27.8584 119.994 27.5637 119.994 27.1784C119.994 26.8951 119.909 26.6854 119.739 26.5494C119.569 26.4134 119.319 26.2944 118.991 26.1924C118.673 26.0904 118.288 25.9771 117.835 25.8524C117.2 25.6597 116.667 25.4614 116.237 25.2574C115.806 25.0421 115.483 24.7814 115.268 24.4754C115.052 24.1694 114.945 23.7784 114.945 23.3024C114.945 22.7244 115.092 22.2314 115.387 21.8234C115.681 21.4154 116.089 21.1037 116.611 20.8884C117.143 20.6731 117.755 20.5654 118.447 20.5654C119.093 20.5654 119.688 20.6674 120.232 20.8714C120.787 21.0641 121.274 21.3701 121.694 21.7894L120.895 23.0304C120.498 22.6677 120.09 22.4014 119.671 22.2314C119.263 22.0614 118.821 21.9764 118.345 21.9764C118.073 21.9764 117.812 22.0104 117.563 22.0784C117.313 22.1351 117.104 22.2484 116.934 22.4184C116.775 22.5771 116.696 22.8037 116.696 23.0984C116.696 23.3364 116.764 23.5291 116.9 23.6764C117.036 23.8237 117.24 23.9484 117.512 24.0504C117.784 24.1524 118.118 24.2657 118.515 24.3904C119.206 24.5944 119.795 24.7984 120.283 25.0024C120.77 25.1951 121.144 25.4501 121.405 25.7674C121.677 26.0734 121.813 26.4984 121.813 27.0424C121.813 27.9037 121.49 28.5781 120.844 29.0654C120.209 29.5414 119.359 29.7794 118.294 29.7794Z" fill="black"/>
<path d="M59.7069 46.7146C59.9195 47.0299 60.1524 47.2517 60.4054 47.3801C60.662 47.5047 60.9499 47.5671 61.2689 47.5671C61.5952 47.5671 61.8794 47.5084 62.1214 47.3911C62.367 47.2737 62.5705 47.1069 62.7319 46.8906C62.8969 46.6706 63.0197 46.4047 63.1004 46.0931C63.181 45.7814 63.2214 45.4312 63.2214 45.0426C63.2214 44.2872 63.071 43.7189 62.7704 43.3376C62.4697 42.9562 62.048 42.7656 61.5054 42.7656C61.1167 42.7656 60.7775 42.8591 60.4879 43.0461C60.1982 43.2331 59.9379 43.4934 59.7069 43.8271V46.7146ZM59.7069 43.3871C59.9452 43.0644 60.2239 42.8114 60.5429 42.6281C60.8619 42.4411 61.2322 42.3476 61.6539 42.3476C61.9839 42.3476 62.279 42.4081 62.5394 42.5291C62.7997 42.6501 63.0197 42.8242 63.1994 43.0516C63.3827 43.2789 63.522 43.5594 63.6174 43.8931C63.7127 44.2231 63.7604 44.5989 63.7604 45.0206C63.7604 45.4642 63.7072 45.8694 63.6009 46.2361C63.4945 46.5991 63.3387 46.9107 63.1334 47.1711C62.9317 47.4277 62.6842 47.6276 62.3909 47.7706C62.0975 47.9099 61.762 47.9796 61.3844 47.9796C60.9957 47.9796 60.6639 47.9062 60.3889 47.7596C60.1175 47.6092 59.8829 47.3874 59.6849 47.0941L59.6464 47.7706C59.6354 47.8622 59.5859 47.9081 59.4979 47.9081H59.1789V39.9056H59.7069V43.3871ZM69.5305 42.4356L66.3845 49.6681C66.3625 49.7194 66.3332 49.7616 66.2965 49.7946C66.2635 49.8276 66.214 49.8441 66.148 49.8441H65.774L66.7365 47.7046L64.421 42.4356H64.8555C64.9105 42.4356 64.9545 42.4502 64.9875 42.4796C65.0205 42.5052 65.0425 42.5346 65.0535 42.5676L66.896 46.8246C66.918 46.8796 66.9364 46.9364 66.951 46.9951C66.9694 47.0501 66.9859 47.1069 67.0005 47.1656C67.0189 47.1069 67.0372 47.0501 67.0555 46.9951C67.0775 46.9364 67.0995 46.8796 67.1215 46.8246L68.942 42.5676C68.9604 42.5272 68.986 42.4961 69.019 42.4741C69.052 42.4484 69.0887 42.4356 69.129 42.4356H69.5305ZM78.3223 40.6041H75.5888V47.9081H75.0223V40.6041H72.2723V40.1256H78.3223V40.6041ZM81.8597 44.6191C81.8597 44.3257 81.8175 44.0636 81.7332 43.8326C81.6525 43.5979 81.537 43.3999 81.3867 43.2386C81.2363 43.0772 81.0567 42.9544 80.8477 42.8701C80.6423 42.7821 80.415 42.7381 80.1657 42.7381C79.8833 42.7381 79.6303 42.7821 79.4067 42.8701C79.183 42.9581 78.9887 43.0846 78.8237 43.2496C78.6623 43.4146 78.5322 43.6126 78.4332 43.8436C78.3342 44.0746 78.2682 44.3331 78.2352 44.6191H81.8597ZM78.2077 44.9546V45.0591C78.2077 45.4697 78.2553 45.8309 78.3507 46.1426C78.446 46.4542 78.5817 46.7164 78.7577 46.9291C78.9337 47.1381 79.1463 47.2957 79.3957 47.4021C79.645 47.5084 79.9237 47.5616 80.2317 47.5616C80.5067 47.5616 80.745 47.5322 80.9467 47.4736C81.1483 47.4112 81.317 47.3434 81.4527 47.2701C81.592 47.1931 81.702 47.1252 81.7827 47.0666C81.8633 47.0042 81.922 46.9731 81.9587 46.9731C82.0063 46.9731 82.043 46.9914 82.0687 47.0281L82.2117 47.2041C82.1237 47.3141 82.0063 47.4167 81.8597 47.5121C81.7167 47.6074 81.5553 47.6899 81.3757 47.7596C81.1997 47.8256 81.009 47.8787 80.8037 47.9191C80.602 47.9594 80.3985 47.9796 80.1932 47.9796C79.8192 47.9796 79.4782 47.9154 79.1702 47.7871C78.8622 47.6551 78.5982 47.4644 78.3782 47.2151C78.1582 46.9657 77.9877 46.6614 77.8667 46.3021C77.7493 45.9391 77.6907 45.5247 77.6907 45.0591C77.6907 44.6667 77.7457 44.3056 77.8557 43.9756C77.9693 43.6419 78.1307 43.3559 78.3397 43.1176C78.5523 42.8756 78.8108 42.6867 79.1152 42.5511C79.4232 42.4154 79.7715 42.3476 80.1602 42.3476C80.4682 42.3476 80.7542 42.4007 81.0182 42.5071C81.2822 42.6134 81.5113 42.7692 81.7057 42.9746C81.9 43.1762 82.0522 43.4256 82.1622 43.7226C82.2758 44.0196 82.3327 44.3606 82.3327 44.7456C82.3327 44.8262 82.3217 44.8812 82.2997 44.9106C82.2777 44.9399 82.241 44.9546 82.1897 44.9546H78.2077ZM87.4365 43.1671C87.4181 43.1854 87.3998 43.2019 87.3815 43.2166C87.3668 43.2276 87.3448 43.2331 87.3155 43.2331C87.2788 43.2331 87.2293 43.2092 87.167 43.1616C87.1046 43.1102 87.0203 43.0552 86.914 42.9966C86.8076 42.9379 86.6738 42.8847 86.5125 42.8371C86.3548 42.7857 86.1623 42.7601 85.935 42.7601C85.6196 42.7601 85.3391 42.8169 85.0935 42.9306C84.8515 43.0406 84.6461 43.2001 84.4775 43.4091C84.3088 43.6181 84.1805 43.8711 84.0925 44.1681C84.0081 44.4651 83.966 44.7987 83.966 45.1691C83.966 45.5541 84.01 45.8951 84.098 46.1921C84.1896 46.4891 84.318 46.7402 84.483 46.9456C84.648 47.1472 84.8478 47.3012 85.0825 47.4076C85.3171 47.5139 85.5775 47.5671 85.8635 47.5671C86.1275 47.5671 86.3475 47.5359 86.5235 47.4736C86.7031 47.4112 86.8498 47.3434 86.9635 47.2701C87.0808 47.1967 87.1725 47.1289 87.2385 47.0666C87.3045 47.0042 87.3595 46.9731 87.4035 46.9731C87.4475 46.9731 87.4841 46.9914 87.5135 47.0281L87.651 47.2041C87.5666 47.3141 87.4603 47.4167 87.332 47.5121C87.2036 47.6074 87.0588 47.6899 86.8975 47.7596C86.7361 47.8292 86.5601 47.8824 86.3695 47.9191C86.1825 47.9594 85.9863 47.9796 85.781 47.9796C85.4326 47.9796 85.1136 47.9172 84.824 47.7926C84.538 47.6642 84.2905 47.4809 84.0815 47.2426C83.8761 47.0006 83.7148 46.7054 83.5975 46.3571C83.4838 46.0087 83.427 45.6127 83.427 45.1691C83.427 44.7511 83.482 44.3697 83.592 44.0251C83.702 43.6804 83.8633 43.3834 84.076 43.1341C84.2886 42.8847 84.5471 42.6922 84.8515 42.5566C85.1595 42.4172 85.5115 42.3476 85.9075 42.3476C86.2631 42.3476 86.5785 42.4044 86.8535 42.5181C87.1285 42.6317 87.3686 42.7857 87.574 42.9801L87.4365 43.1671ZM89.4735 43.3596C89.7265 43.0516 90.0143 42.8059 90.337 42.6226C90.6633 42.4392 91.0281 42.3476 91.4315 42.3476C91.7321 42.3476 91.9961 42.3952 92.2235 42.4906C92.4545 42.5859 92.6451 42.7234 92.7955 42.9031C92.9458 43.0827 93.0595 43.2991 93.1365 43.5521C93.2135 43.8051 93.252 44.0911 93.252 44.4101V47.9081H92.724V44.4101C92.724 43.8967 92.6066 43.4952 92.372 43.2056C92.1373 42.9122 91.7798 42.7656 91.2995 42.7656C90.9438 42.7656 90.6101 42.8572 90.2985 43.0406C89.9905 43.2202 89.7155 43.4714 89.4735 43.7941V47.9081H88.9455V39.9056H89.4735V43.3596ZM95.4938 43.3926C95.7468 43.0772 96.0383 42.8242 96.3683 42.6336C96.702 42.4429 97.0723 42.3476 97.4793 42.3476C97.78 42.3476 98.044 42.3952 98.2713 42.4906C98.5023 42.5859 98.693 42.7234 98.8433 42.9031C98.9936 43.0827 99.1073 43.2991 99.1843 43.5521C99.2613 43.8051 99.2998 44.0911 99.2998 44.4101V47.9081H98.7718V44.4101C98.7718 43.8967 98.6545 43.4952 98.4198 43.2056C98.1851 42.9122 97.8276 42.7656 97.3473 42.7656C96.9916 42.7656 96.658 42.8572 96.3463 43.0406C96.0383 43.2202 95.7633 43.4714 95.5213 43.7941V47.9081H94.9933V42.4356H95.2848C95.3765 42.4356 95.4296 42.4814 95.4443 42.5731L95.4938 43.3926ZM103.208 42.3476C103.6 42.3476 103.951 42.4154 104.259 42.5511C104.57 42.6831 104.832 42.8719 105.045 43.1176C105.258 43.3632 105.419 43.6602 105.529 44.0086C105.643 44.3532 105.7 44.7401 105.7 45.1691C105.7 45.5981 105.643 45.9849 105.529 46.3296C105.419 46.6742 105.258 46.9694 105.045 47.2151C104.832 47.4607 104.57 47.6496 104.259 47.7816C103.951 47.9136 103.6 47.9796 103.208 47.9796C102.816 47.9796 102.464 47.9136 102.152 47.7816C101.844 47.6496 101.582 47.4607 101.366 47.2151C101.153 46.9694 100.99 46.6742 100.876 46.3296C100.766 45.9849 100.711 45.5981 100.711 45.1691C100.711 44.7401 100.766 44.3532 100.876 44.0086C100.99 43.6602 101.153 43.3632 101.366 43.1176C101.582 42.8719 101.844 42.6831 102.152 42.5511C102.464 42.4154 102.816 42.3476 103.208 42.3476ZM103.208 47.5671C103.534 47.5671 103.819 47.5121 104.061 47.4021C104.306 47.2884 104.51 47.1271 104.671 46.9181C104.836 46.7091 104.959 46.4579 105.04 46.1646C105.12 45.8676 105.161 45.5357 105.161 45.1691C105.161 44.8061 105.12 44.4761 105.04 44.1791C104.959 43.8821 104.836 43.6291 104.671 43.4201C104.51 43.2074 104.306 43.0442 104.061 42.9306C103.819 42.8169 103.534 42.7601 103.208 42.7601C102.882 42.7601 102.596 42.8169 102.35 42.9306C102.108 43.0442 101.905 43.2074 101.74 43.4201C101.578 43.6291 101.455 43.8821 101.371 44.1791C101.29 44.4761 101.25 44.8061 101.25 45.1691C101.25 45.5357 101.29 45.8676 101.371 46.1646C101.455 46.4579 101.578 46.7091 101.74 46.9181C101.905 47.1271 102.108 47.2884 102.35 47.4021C102.596 47.5121 102.882 47.5671 103.208 47.5671Z" fill="black"/>
</svg>
