<svg width="25" height="25" viewBox="0 0 25 25" fill="none" xmlns="http://www.w3.org/2000/svg">
<path d="M14.8007 20.3493V15.8492C14.8007 15.6503 14.7217 15.4596 14.5811 15.3189C14.4404 15.1783 14.2496 15.0992 14.0507 15.0992H11.0507C10.8518 15.0992 10.661 15.1783 10.5204 15.3189C10.3797 15.4596 10.3007 15.6503 10.3007 15.8492V20.3493C10.3007 20.5482 10.2217 20.739 10.0811 20.8796C9.94045 21.0203 9.74971 21.0993 9.55081 21.0993L5.05136 21.0999C4.95286 21.0999 4.85533 21.0806 4.76432 21.0429C4.67332 21.0052 4.59063 20.9499 4.52097 20.8803C4.45132 20.8106 4.39607 20.728 4.35837 20.637C4.32067 20.546 4.30127 20.4484 4.30127 20.3499V11.6818C4.30127 11.5773 4.3231 11.4739 4.36537 11.3784C4.40764 11.2828 4.46941 11.1972 4.54672 11.1269L12.0462 4.30797C12.1843 4.18245 12.3641 4.11289 12.5507 4.11288C12.7373 4.11288 12.9172 4.18242 13.0553 4.30794L20.5558 11.1269C20.6331 11.1971 20.6949 11.2828 20.7372 11.3784C20.7794 11.474 20.8013 11.5773 20.8013 11.6818V20.3499C20.8013 20.4484 20.7819 20.546 20.7442 20.637C20.7065 20.728 20.6512 20.8107 20.5816 20.8803C20.5119 20.9499 20.4292 21.0052 20.3382 21.0429C20.2472 21.0806 20.1497 21.0999 20.0512 21.0999L15.5506 21.0993C15.3517 21.0993 15.161 21.0203 15.0204 20.8796C14.8797 20.739 14.8007 20.5482 14.8007 20.3493V20.3493Z" stroke="black" stroke-linecap="round" stroke-linejoin="round"/>
</svg>
